# xmcd
#
# Track frame offsets:
#	150
#	9580
#	36482
#	60918
#	89009
#	97981
#	126012
#	149419
#	170801
#	182594
#	211189
#	238630
#	264131
#	271341
#	291506
#	319659
#	342321
#
# Disc length: 4649 seconds
#
# Revision: 11
# Processed by: cddbd v1.5.2PL0 Copyright (c) Steve Scherf et al.
# Submitted via: Jack! The Knife 20 Magnifico
#
DISCID=f9122711
DTITLE=Cradle Of Filth - Damnation And A Day
DYEAR=2003
DGENRE=Metal
TTITLE0=A Bruise Upon The Silent Moon
TTITLE1=The Promise Of Fever
TTITLE2=Hurt And Virtue
TTITLE3=An Enemy Led The Tempest
TTITLE4=Damned In Any Language (A Plague On Words)
TTITLE5=Better To Reign In Hell
TTITLE6=Serpent Tongue
TTITLE7=Carrion
TTITLE8=The Mordant Liquor Of Tears
TTITLE9=Presents From The Poison-Hearted
TTITLE10=Doberman Pharaoh
TTITLE11=Babalon A.D. (So Glad For The Madness)
TTITLE12=A Scarlet Witch Lit The Season
TTITLE13=Mannequin
TTITLE14=Thank God For The Suffering
TTITLE15=The Smoke Of Her Burning
TTITLE16=End Of Daze
EXTD=Doug Cook and Cradle Of Filth
EXTT0=Filth, Allender, Powell, Pybus, Erlandsson
EXTT1=Filth, Allender, Powell, Pybus, Erlandsson
EXTT2=Filth, Allender, Powell, Pybus, Erlandsson
EXTT3=Filth, Allender, Powell, Pybus, Erlandsson
EXTT4=Filth, Allender, Powell, Pybus, Erlandsson
EXTT5=Filth, Allender, Powell, Pybus, Erlandsson
EXTT6=Filth, Allender, Powell, Pybus, Erlandsson
EXTT7=Filth, Allender, Powell, Pybus, Erlandsson
EXTT8=Filth, Allender, Powell, Pybus, Erlandsson
EXTT9=Filth, Allender, Powell, Pybus, Erlandsson
EXTT10=Filth, Allender, Powell, Pybus, Erlandsson
EXTT11=Filth, Allender, Powell, Pybus, Erlandsson
EXTT12=Filth, Allender, Powell, Pybus, Erlandsson
EXTT13=Filth, Allender, Powell, Pybus, Erlandsson
EXTT14=Filth, Allender, Powell, Pybus, Erlandsson
EXTT15=Filth, Allender, Powell, Pybus, Erlandsson
EXTT16=Filth, Allender, Powell, Pybus, Erlandsson
PLAYORDER=
